<svg width="1079" height="133" viewBox="0 0 1079 133" fill="none" xmlns="http://www.w3.org/2000/svg">
<path d="M1011.14 132.233C998.428 132.233 988.485 128.464 983.312 125.016C976.617 120.646 975.895 115.072 978.02 107.254C979.263 102.803 980.786 96.8293 982.511 90.4943C986.6 77.4636 1003.88 79.3079 1003.04 92.5793C1002.2 105.931 1007.45 112.987 1017.15 112.987C1024.53 112.987 1030.42 108.577 1032.51 101.681C1034.79 93.8222 1032.83 87.4872 1019.04 76.9824C998.508 61.1049 994.619 47.3925 999.671 31.6353C1005.04 13.9536 1023.73 0.000610352 1049.23 0.000610352C1058.53 0.000610352 1065.59 2.16572 1070.44 4.37093C1077.66 7.81907 1079.3 12.8309 1077.66 20.489C1076.33 25.9018 1074.13 32.7981 1072.16 39.6142C1068.03 52.4846 1051.03 50.8006 1051.95 37.2085C1052.76 25.14 1048.83 19.2461 1041.29 19.2461C1035.36 19.2461 1029.46 23.6565 1027.34 31.3146C1025.09 39.534 1027.82 45.5081 1040.53 56.0931C1060.74 72.9329 1065.11 82.4754 1059.93 101.601C1055.4 117.518 1037 132.233 1011.14 132.233Z" fill="#FAFFE9"/>
<path d="M920.479 132.232C877.939 132.232 865.469 95.0244 874.691 60.9439C883.793 26.3823 911.618 0 946.421 0C985.874 0 1002.91 33.7597 992.249 72.2105C983.629 105.048 955.121 132.232 920.479 132.232ZM904.081 65.1539C897.064 90.8947 903.239 112.826 922.404 112.826C940.447 112.826 956.524 91.9772 963.18 67.1185C970.237 41.3777 963.942 19.4058 944.737 19.4058C926.413 19.4058 910.736 40.2551 904.081 65.1539Z" fill="#FAFFE9"/>
<path d="M854.676 130.107C843.168 130.027 831.34 129.867 819.352 129.947C808.647 129.947 805.359 116.635 813.899 111.864C824.364 106.932 826.93 104.326 830.779 91.1752C835.55 74.4156 839.961 57.8966 845.374 37.3681C847.859 27.6251 847.338 24.0165 840.362 18.0825C835.35 12.2688 838.678 2.4857 848.581 2.32532H884.065C893.247 2.4857 896.454 15.2759 888.756 20.2877C879.735 24.7383 876.247 26.7029 872.999 38.2101C867.546 57.3352 863.456 72.6915 858.605 91.4959C855.157 105.689 855.558 109.138 861.973 113.267C868.107 119.241 864.579 130.107 854.676 130.107Z" fill="#FAFFE9"/>
<path d="M703.471 130.107C692.805 130.027 690.68 116.395 700.183 111.623C709.565 107.935 711.77 105.609 715.98 90.5336C720.832 72.9321 725.483 56.0121 730.254 38.1299C733.622 25.3798 732.98 23.8963 726.004 19.3255C719.509 13.2311 724.52 2.4857 734.424 2.32532H774.198C818.703 2.4857 840.194 29.9907 828.727 71.0476C818.583 107.333 787.589 130.348 746.252 129.947C728.289 129.786 714.256 129.947 703.471 130.107ZM743.646 92.0572C739.837 106.652 744.568 110.741 757.318 109.899C778.287 108.175 793.163 89.3709 799.818 64.8329C807.877 35.0827 796.45 22.4529 775.08 21.6109C764.495 21.2099 762.049 23.4151 759.844 31.5544C751.584 61.9461 748.056 75.6585 743.646 92.0572Z" fill="#FAFFE9"/>
<path d="M642.318 132.233C613.089 132.233 598.655 111.624 607.837 79.0269C612.207 64.0716 614.813 53.4064 619.264 36.5666C621.629 27.5453 621.068 24.3378 614.011 18.4037C608.839 12.8306 613.009 2.48615 621.95 2.32577C635.422 2.24558 646.849 2.40596 657.995 2.32577C669.543 2.56634 671.307 15.7976 662.366 20.9698C651.62 25.7411 649.415 28.5076 647.17 36.3261C642.519 53.0055 639.953 62.7485 634.861 82.5552C630.089 100.277 637.306 111.544 650.377 111.544C657.634 111.544 664.611 108.777 670.345 102.362C674.434 97.7912 677.842 91.336 680.288 82.7156C685.621 63.5905 688.588 51.6021 692.597 36.5666C694.802 28.1067 694.642 24.1774 688.307 19.0052C682.734 12.7504 686.262 2.56634 696.206 2.32577C706.109 2.24558 714.85 2.24558 723.63 2.32577C736.1 2.72671 737.263 16.3589 729.364 20.649C718.218 25.3802 716.093 28.1067 713.045 38.852C708.835 53.647 706.149 63.9112 702.22 79.3477C698.13 94.8643 691.795 107.254 683.135 116.155C672.87 126.659 659.318 132.233 642.318 132.233Z" fill="#FAFFE9"/>
<path d="M517.656 130.107C506.109 130.027 503.943 115.994 512.323 111.624C524.712 106.612 527.359 103.404 530.727 91.3358C535.979 72.6115 540.75 54.2081 543.757 42.6207C548.689 23.4955 547.687 21.8517 540.911 21.9319C535.819 21.972 532.892 24.3375 522.427 42.0995C515.892 53.2057 499.613 47.833 503.863 34.1607C506.349 27.1843 509.035 19.4861 512.083 12.269C514.889 6.09445 519.139 2.32555 527.439 2.32555C563.163 2.40574 570.541 2.40574 605.784 2.24536C615.527 2.24536 620.058 6.93644 619.015 15.9577C617.852 22.9342 616.609 30.873 615.367 38.932C613.482 51.201 595.6 51.0406 595.159 37.649C594.678 22.6937 593.836 21.9319 585.977 21.8517C579.001 21.7715 577.196 23.4956 572.946 38.6914C567.814 56.6138 563.243 74.1752 558.552 91.9773C555.184 104.968 555.906 108.897 564.045 112.666C570.541 117.798 567.894 130.107 556.828 130.107C542.434 129.947 530.125 129.947 517.656 130.107Z" fill="#FAFFE9"/>
<path d="M441.668 132.232C428.958 132.232 419.015 128.463 413.843 125.015C407.147 120.645 406.425 115.072 408.55 107.253C409.793 102.803 411.317 96.8287 413.041 90.4937C417.13 77.463 434.411 79.3073 433.569 92.5787C432.727 105.93 437.98 112.987 447.683 112.987C455.06 112.987 460.954 108.576 463.039 101.68C465.324 93.8216 463.36 87.4866 449.567 76.9818C429.039 61.1043 425.149 47.3919 430.201 31.6347C435.574 13.953 454.258 0 479.758 0C489.06 0 496.117 2.16511 500.968 4.37032C508.186 7.81846 509.829 12.8303 508.186 20.4884C506.862 25.9012 504.657 32.7975 502.693 39.6136C498.563 52.484 481.563 50.8 482.485 37.2079C483.287 25.1394 479.357 19.2455 471.82 19.2455C465.886 19.2455 459.992 23.6559 457.867 31.314C455.621 39.5334 458.348 45.5075 471.058 56.0925C491.266 72.9322 495.636 82.4748 490.464 101.6C485.933 117.518 467.529 132.232 441.668 132.232Z" fill="#FAFFE9"/>
<path d="M323.774 132.232C286.366 132.232 266.318 101.359 277.024 61.4652C284.722 32.7975 309.901 0 353.364 0C363.307 0 374.975 1.72407 385.319 5.53307C393.098 8.37979 395.664 13.5921 394.742 20.6087C393.94 27.1842 393.098 33.038 392.216 39.4131C390.171 51.8424 372.088 53.4462 371.366 39.6136C370.685 26.3823 362.145 19.887 349.675 19.887C328.866 19.887 314.873 37.248 307.215 64.2317C298.113 96.2674 307.616 112.666 327.984 112.666C333.597 112.666 337.847 111.584 341.576 109.539C345.064 107.574 346.788 105.77 347.59 102.562C348.111 100.958 348.593 99.4749 350.076 93.7013C351.56 87.4866 351.159 85.9229 343.501 82.4748C335.562 77.1823 338.489 64.793 349.595 64.3921C361.503 64.2317 372.168 64.2317 383.635 64.3921C394.1 64.793 397.067 78.2648 388.326 83.0361C381.43 86.0833 379.666 88.8498 377.18 97.5103L373.572 110.06C371.807 116.154 368.079 119.562 363.147 122.209C352.201 128.062 337.847 132.232 323.774 132.232Z" fill="#FAFFE9"/>
<path d="M154.246 130.107C142.738 129.706 140.533 115.874 149.554 111.463C159.257 107.494 161.623 104.567 165.913 90.6141C171.085 72.1304 176.017 53.727 180.107 37.5287C182.633 27.4649 182.071 23.696 175.015 18.163C170.083 12.5898 174.133 2.48594 182.913 2.32557C192.576 2.24538 197.027 2.40575 202.68 2.48594C209.255 2.64632 212.704 4.77134 215.27 10.7855C225.093 34.0806 231.187 48.234 239.647 66.7577C242.614 73.6941 247.786 73.0927 249.751 65.5549C252.357 55.852 254.763 46.7505 257.89 34.7622C259.935 27.0239 259.013 23.6559 252.357 18.3233C247.025 12.7502 250.393 2.40576 260.336 2.32557C274.289 2.40576 276.013 2.40576 288.082 2.32557C299.268 2.40576 302.115 15.2762 293.414 20.4484C282.108 26.0616 280.383 29.0687 276.695 42.2198C274.209 51.1208 271.563 60.8237 268.836 71.1281C264.546 87.3664 259.975 105.048 255.324 123.051C252.558 133.315 239.046 135.039 234.716 124.534C223.97 99.475 213.866 76.6611 204.645 56.2128C201.958 50.2788 197.267 51.0005 195.543 57.8166C191.935 70.6469 189.288 80.831 186.522 91.5763C182.673 106.612 183.394 109.739 189.369 112.867C195.784 118.279 192.977 129.706 182.833 129.947C168.439 130.027 166.875 130.188 154.246 130.107Z" fill="#FAFFE9"/>
<path d="M139.964 130.107C128.457 130.027 116.629 129.867 104.64 129.947C93.9352 129.947 90.6474 116.635 99.1876 111.864C109.652 106.932 112.218 104.326 116.067 91.1752C120.839 74.4156 125.249 57.8966 130.662 37.3681C133.148 27.6251 132.627 24.0165 125.65 18.0825C120.638 12.2688 123.966 2.4857 133.87 2.32532H169.353C178.535 2.4857 181.743 15.2759 174.044 20.2877C165.023 24.7383 161.535 26.7029 158.287 38.2101C152.834 57.3352 148.745 72.6915 143.893 91.4959C140.445 105.689 140.846 109.138 147.261 113.267C153.396 119.241 149.867 130.107 139.964 130.107Z" fill="#FAFFE9"/>
<path d="M9.68805 130.268C0.426176 130.107 -4.10453 120.404 4.83659 110.701C29.2543 84.3592 53.9125 56.8543 79.4528 28.4271C82.4198 25.1394 81.2972 22.2124 78.25 22.012C73.5188 21.8917 68.8277 21.8917 63.7758 22.0922C56.7191 22.453 53.3512 25.3799 43.6883 41.1772C37.3133 51.6018 21.4759 45.748 25.325 32.7173C27.1292 26.8634 29.9359 18.7242 32.4618 12.5897C35.509 5.93399 39.2779 2.24528 47.8181 2.16509C52.3087 2.16509 56.8394 2.125 61.4904 2.125C69.6697 2.125 78.0094 2.0849 86.4293 2.125C95.6912 2.125 104.953 2.125 114.014 2.16509C124.158 2.32547 128.128 12.269 119.989 21.2101C96.0119 47.3117 71.7145 74.5761 48.1389 100.798C43.4478 106.05 45.3322 110.541 49.9832 110.621C53.271 110.782 58.2427 110.782 62.8135 110.701C74.8419 110.501 77.5684 107.815 87.151 91.1753C94.5284 78.3851 109.885 85.4418 105.795 98.5527C103.229 105.93 100.863 112.666 97.9766 120.003C95.0497 126.98 91.2807 130.107 84.184 130.268C77.9693 130.348 71.3938 130.388 64.5777 130.388H44.5704C32.3416 130.348 20.3131 130.308 9.68805 130.268Z" fill="#FAFFE9"/>
</svg>
